<mxfile host="app.diagrams.net" modified="2023-05-18T10:25:27.679Z" agent="Mozilla/5.0 (Windows NT 10.0; Win64; x64) AppleWebKit/537.36 (KHTML, like Gecko) Chrome/109.0.0.0 Safari/537.36" version="21.3.2" etag="RAPyOHvXQ5kTag39SBpD" type="github">
  <diagram name="Page-1" id="JaZHBZI9Nk1nFVm9h3Sx">
    <mxGraphModel>
      <root>
        <mxCell id="0" />
        <mxCell id="1" parent="0" />
      </root>
    </mxGraphModel>
  </diagram>
</mxfile>
